<?xml version="1.0" standalone="no"?>
<!DOCTYPE svg PUBLIC "-//W3C//DTD SVG 20010904//EN"
 "http://www.w3.org/TR/2001/REC-SVG-20010904/DTD/svg10.dtd">
<svg version="1.0" xmlns="http://www.w3.org/2000/svg"
 width="168.000000pt" height="168.000000pt" viewBox="0 0 168.000000 168.000000"
 preserveAspectRatio="xMidYMid meet">
<metadata>
Created by potrace 1.11, written by Peter Selinger 2001-2013
</metadata>
<g transform="translate(0.000000,168.000000) scale(0.100000,-0.100000)"
fill="#000000" stroke="none">
<path d="M124 1649 c-46 -13 -91 -69 -99 -122 -4 -23 -5 -125 -3 -224 3 -198
6 -208 72 -257 26 -20 41 -21 246 -21 241 0 243 1 294 69 20 26 21 41 21 246
0 205 -1 220 -21 246 -50 67 -56 69 -277 71 -111 1 -216 -2 -233 -8z m29 -16
c-7 -2 -19 -2 -25 0 -7 3 -2 5 12 5 14 0 19 -2 13 -5z m400 0 c-7 -2 -19 -2
-25 0 -7 3 -2 5 12 5 14 0 19 -2 13 -5z m-456 -18 c-10 -7 -25 -22 -33 -32
-14 -17 -14 -16 -4 4 5 12 18 27 28 32 25 15 30 13 9 -4z m523 -28 c10 -20 10
-21 -4 -4 -8 10 -23 25 -33 33 -17 14 -16 14 4 4 13 -6 27 -20 33 -33z m-573
-59 c-3 -7 -5 -2 -5 12 0 14 2 19 5 13 2 -7 2 -19 0 -25z m590 0 c-3 -7 -5 -2
-5 12 0 14 2 19 5 13 2 -7 2 -19 0 -25z m-590 -400 c-3 -7 -5 -2 -5 12 0 14 2
19 5 13 2 -7 2 -19 0 -25z m590 0 c-3 -7 -5 -2 -5 12 0 14 2 19 5 13 2 -7 2
-19 0 -25z m-540 -64 c17 -14 16 -14 -4 -4 -13 6 -27 20 -33 33 -10 20 -10 21
4 4 8 -10 23 -25 33 -33z m523 26 c-6 -11 -20 -25 -32 -31 -18 -9 -16 -5 7 19
35 37 39 39 25 12z m-467 -47 c-7 -2 -19 -2 -25 0 -7 3 -2 5 12 5 14 0 19 -2
13 -5z m400 0 c-7 -2 -19 -2 -25 0 -7 3 -2 5 12 5 14 0 19 -2 13 -5z"/>
<path d="M804 1649 c-41 -12 -91 -69 -99 -111 -4 -18 -5 -119 -3 -225 3 -210
5 -218 72 -267 26 -20 41 -21 246 -21 241 0 243 1 294 69 20 26 21 41 21 246
0 205 -1 220 -21 246 -50 67 -56 69 -277 71 -111 1 -216 -2 -233 -8z m29 -16
c-7 -2 -19 -2 -25 0 -7 3 -2 5 12 5 14 0 19 -2 13 -5z m400 0 c-7 -2 -19 -2
-25 0 -7 3 -2 5 12 5 14 0 19 -2 13 -5z m-456 -18 c-10 -7 -25 -22 -33 -32
-14 -17 -14 -16 -4 4 5 12 18 27 28 32 25 15 30 13 9 -4z m523 -28 c10 -20 10
-21 -4 -4 -8 10 -23 25 -33 33 -17 14 -16 14 4 4 13 -6 27 -20 33 -33z m-573
-59 c-3 -7 -5 -2 -5 12 0 14 2 19 5 13 2 -7 2 -19 0 -25z m590 0 c-3 -7 -5 -2
-5 12 0 14 2 19 5 13 2 -7 2 -19 0 -25z m-590 -400 c-3 -7 -5 -2 -5 12 0 14 2
19 5 13 2 -7 2 -19 0 -25z m590 0 c-3 -7 -5 -2 -5 12 0 14 2 19 5 13 2 -7 2
-19 0 -25z m-540 -64 c17 -14 16 -14 -4 -4 -13 6 -27 20 -33 33 -10 20 -10 21
4 4 8 -10 23 -25 33 -33z m523 26 c-6 -11 -20 -25 -32 -31 -18 -9 -16 -5 7 19
35 37 39 39 25 12z m-467 -47 c-7 -2 -19 -2 -25 0 -7 3 -2 5 12 5 14 0 19 -2
13 -5z m400 0 c-7 -2 -19 -2 -25 0 -7 3 -2 5 12 5 14 0 19 -2 13 -5z"/>
<path d="M1484 1649 c-40 -11 -91 -69 -99 -111 -4 -18 -5 -119 -3 -225 3 -175
5 -194 24 -219 43 -59 68 -69 175 -72 l99 -4 0 321 0 321 -82 -1 c-46 0 -97
-5 -114 -10z m29 -16 c-7 -2 -19 -2 -25 0 -7 3 -2 5 12 5 14 0 19 -2 13 -5z
m-56 -18 c-10 -7 -25 -22 -33 -32 -14 -17 -14 -16 -4 4 5 12 18 27 28 32 25
15 30 13 9 -4z m-50 -87 c-3 -7 -5 -2 -5 12 0 14 2 19 5 13 2 -7 2 -19 0 -25z
m0 -400 c-3 -7 -5 -2 -5 12 0 14 2 19 5 13 2 -7 2 -19 0 -25z m50 -64 c17 -14
16 -14 -4 -4 -13 6 -27 20 -33 33 -10 20 -10 21 4 4 8 -10 23 -25 33 -33z m56
-21 c-7 -2 -19 -2 -25 0 -7 3 -2 5 12 5 14 0 19 -2 13 -5z"/>
<path d="M115 966 c-45 -20 -83 -70 -90 -119 -4 -24 -5 -125 -3 -224 3 -198 6
-208 72 -257 26 -20 41 -21 246 -21 205 0 220 1 246 21 68 51 69 53 69 294 0
205 -1 220 -21 246 -50 67 -55 69 -282 71 -157 2 -214 0 -237 -11z m38 -13
c-7 -2 -19 -2 -25 0 -7 3 -2 5 12 5 14 0 19 -2 13 -5z m400 0 c-7 -2 -19 -2
-25 0 -7 3 -2 5 12 5 14 0 19 -2 13 -5z m-456 -18 c-10 -7 -25 -22 -33 -32
-14 -17 -14 -16 -4 4 5 12 18 27 28 32 25 15 30 13 9 -4z m523 -28 c10 -20 10
-21 -4 -4 -8 10 -23 25 -33 33 -17 14 -16 14 4 4 13 -6 27 -20 33 -33z m-573
-59 c-3 -7 -5 -2 -5 12 0 14 2 19 5 13 2 -7 2 -19 0 -25z m590 0 c-3 -7 -5 -2
-5 12 0 14 2 19 5 13 2 -7 2 -19 0 -25z m-590 -400 c-3 -7 -5 -2 -5 12 0 14 2
19 5 13 2 -7 2 -19 0 -25z m590 0 c-3 -7 -5 -2 -5 12 0 14 2 19 5 13 2 -7 2
-19 0 -25z m-540 -64 c17 -14 16 -14 -4 -4 -13 6 -27 20 -33 33 -10 20 -10 21
4 4 8 -10 23 -25 33 -33z m523 26 c-6 -11 -20 -25 -32 -31 -18 -9 -16 -5 7 19
35 37 39 39 25 12z m-467 -47 c-7 -2 -19 -2 -25 0 -7 3 -2 5 12 5 14 0 19 -2
13 -5z m400 0 c-7 -2 -19 -2 -25 0 -7 3 -2 5 12 5 14 0 19 -2 13 -5z"/>
<path d="M795 966 c-41 -18 -83 -69 -90 -109 -4 -18 -5 -118 -3 -224 3 -210 5
-218 72 -267 26 -20 41 -21 246 -21 205 0 220 1 246 21 68 51 69 53 69 294 0
205 -1 220 -21 246 -50 67 -55 69 -282 71 -157 2 -214 0 -237 -11z m38 -13
c-7 -2 -19 -2 -25 0 -7 3 -2 5 12 5 14 0 19 -2 13 -5z m400 0 c-7 -2 -19 -2
-25 0 -7 3 -2 5 12 5 14 0 19 -2 13 -5z m-456 -18 c-10 -7 -25 -22 -33 -32
-14 -17 -14 -16 -4 4 5 12 18 27 28 32 25 15 30 13 9 -4z m523 -28 c10 -20 10
-21 -4 -4 -8 10 -23 25 -33 33 -17 14 -16 14 4 4 13 -6 27 -20 33 -33z m-573
-59 c-3 -7 -5 -2 -5 12 0 14 2 19 5 13 2 -7 2 -19 0 -25z m590 0 c-3 -7 -5 -2
-5 12 0 14 2 19 5 13 2 -7 2 -19 0 -25z m-590 -400 c-3 -7 -5 -2 -5 12 0 14 2
19 5 13 2 -7 2 -19 0 -25z m590 0 c-3 -7 -5 -2 -5 12 0 14 2 19 5 13 2 -7 2
-19 0 -25z m-540 -64 c17 -14 16 -14 -4 -4 -13 6 -27 20 -33 33 -10 20 -10 21
4 4 8 -10 23 -25 33 -33z m523 26 c-6 -11 -20 -25 -32 -31 -18 -9 -16 -5 7 19
35 37 39 39 25 12z m-467 -47 c-7 -2 -19 -2 -25 0 -7 3 -2 5 12 5 14 0 19 -2
13 -5z m400 0 c-7 -2 -19 -2 -25 0 -7 3 -2 5 12 5 14 0 19 -2 13 -5z"/>
<path d="M1475 966 c-41 -18 -83 -69 -90 -109 -4 -18 -5 -118 -3 -224 3 -175
5 -194 24 -219 43 -59 68 -69 175 -72 l99 -4 0 321 0 321 -87 0 c-50 -1 -101
-6 -118 -14z m38 -13 c-7 -2 -19 -2 -25 0 -7 3 -2 5 12 5 14 0 19 -2 13 -5z
m-56 -18 c-10 -7 -25 -22 -33 -32 -14 -17 -14 -16 -4 4 5 12 18 27 28 32 25
15 30 13 9 -4z m-50 -87 c-3 -7 -5 -2 -5 12 0 14 2 19 5 13 2 -7 2 -19 0 -25z
m0 -400 c-3 -7 -5 -2 -5 12 0 14 2 19 5 13 2 -7 2 -19 0 -25z m50 -64 c17 -14
16 -14 -4 -4 -13 6 -27 20 -33 33 -10 20 -10 21 4 4 8 -10 23 -25 33 -33z m56
-21 c-7 -2 -19 -2 -25 0 -7 3 -2 5 12 5 14 0 19 -2 13 -5z"/>
<path d="M115 286 c-70 -32 -95 -86 -95 -208 l0 -78 321 0 321 0 -4 99 c-3
107 -13 132 -72 175 -25 19 -43 21 -234 23 -158 2 -214 0 -237 -11z m38 -13
c-7 -2 -19 -2 -25 0 -7 3 -2 5 12 5 14 0 19 -2 13 -5z m400 0 c-7 -2 -19 -2
-25 0 -7 3 -2 5 12 5 14 0 19 -2 13 -5z m-456 -18 c-10 -7 -25 -22 -33 -32
-14 -17 -14 -16 -4 4 5 12 18 27 28 32 25 15 30 13 9 -4z m523 -28 c10 -20 10
-21 -4 -4 -8 10 -23 25 -33 33 -17 14 -16 14 4 4 13 -6 27 -20 33 -33z m-573
-59 c-3 -7 -5 -2 -5 12 0 14 2 19 5 13 2 -7 2 -19 0 -25z m590 0 c-3 -7 -5 -2
-5 12 0 14 2 19 5 13 2 -7 2 -19 0 -25z"/>
<path d="M795 286 c-71 -32 -95 -83 -95 -202 l0 -84 321 0 321 0 -4 99 c-3
107 -13 132 -72 175 -25 19 -43 21 -234 23 -158 2 -214 0 -237 -11z m38 -13
c-7 -2 -19 -2 -25 0 -7 3 -2 5 12 5 14 0 19 -2 13 -5z m400 0 c-7 -2 -19 -2
-25 0 -7 3 -2 5 12 5 14 0 19 -2 13 -5z m-456 -18 c-10 -7 -25 -22 -33 -32
-14 -17 -14 -16 -4 4 5 12 18 27 28 32 25 15 30 13 9 -4z m523 -28 c10 -20 10
-21 -4 -4 -8 10 -23 25 -33 33 -17 14 -16 14 4 4 13 -6 27 -20 33 -33z m-573
-59 c-3 -7 -5 -2 -5 12 0 14 2 19 5 13 2 -7 2 -19 0 -25z m590 0 c-3 -7 -5 -2
-5 12 0 14 2 19 5 13 2 -7 2 -19 0 -25z"/>
<path d="M1475 286 c-71 -31 -95 -83 -95 -202 l0 -84 150 0 150 0 0 150 0 150
-87 0 c-51 -1 -101 -6 -118 -14z m38 -13 c-7 -2 -19 -2 -25 0 -7 3 -2 5 12 5
14 0 19 -2 13 -5z m-56 -18 c-10 -7 -25 -22 -33 -32 -14 -17 -14 -16 -4 4 5
12 18 27 28 32 25 15 30 13 9 -4z m-50 -87 c-3 -7 -5 -2 -5 12 0 14 2 19 5 13
2 -7 2 -19 0 -25z"/>
</g>
</svg>
